<?xml version="1.0" encoding="UTF-8"?>
<svg id="Layer_1" xmlns="http://www.w3.org/2000/svg" xmlns:xlink="http://www.w3.org/1999/xlink" version="1.1" viewBox="0 0 1080 1080">
  <!-- Generator: Adobe Illustrator 30.0.0, SVG Export Plug-In . SVG Version: 2.1.1 Build 123)  -->
  <defs>
    <style>
      .st0 {
        fill: #dfff03;
      }

      .st1 {
        stroke: url(#linear-gradient2);
      }

      .st1, .st2, .st3, .st4 {
        fill: none;
        stroke-miterlimit: 10;
      }

      .st2 {
        stroke: url(#linear-gradient1);
      }

      .st3 {
        stroke: url(#linear-gradient3);
      }

      .st5 {
        opacity: .27;
      }

      .st4 {
        stroke: url(#linear-gradient);
      }
    </style>
    <linearGradient id="linear-gradient" x1="4016.98" y1="2846.44" x2="4604.36" y2="2846.44" gradientTransform="translate(-2301.35 4794.09) rotate(-90)" gradientUnits="userSpaceOnUse">
      <stop offset="0" stop-color="#fff"/>
      <stop offset=".44" stop-color="#fff"/>
      <stop offset="1" stop-color="#231f20"/>
    </linearGradient>
    <linearGradient id="linear-gradient1" x1="3956.12" x2="4665.21" xlink:href="#linear-gradient"/>
    <linearGradient id="linear-gradient2" x1="4098.02" x2="4523.31" xlink:href="#linear-gradient"/>
    <linearGradient id="linear-gradient3" x1="4175.23" y1="2846.44" x2="4446.1" y2="2846.44" xlink:href="#linear-gradient"/>
  </defs>
  <g class="st5">
    <circle class="st4" cx="545.09" cy="483.42" r="293.19"/>
    <circle class="st2" cx="545.09" cy="483.42" r="354.04"/>
    <circle class="st1" cx="545.09" cy="483.42" r="212.14"/>
    <circle class="st3" cx="545.09" cy="483.42" r="134.93"/>
  </g>
  <g>
    <path d="M319.63,897.81l.89-1.1c3.07-32.39,4.95-64.97,8.72-97.29,6.57-56.29,15.77-105.96,74.52-128.23,30.67-11.63,64.86-16.6,96.44-25.47l.56-.76-.02-50.16c-12.39-10.86-19.24-24.25-21.71-40.57-15.87.23-29.66-10.82-35-25.29-7.76-21.01,5.6-42.89,28.99-35.95,1.06-20.84,13.77-41.21,29.15-54.67,6.19-5.42,23.98-17.49,31.84-11.29,3.93,3.1,2.31,8.06,2.29,12.29,13.35-11.23,34.66-25.96,52.97-20.5,12.96,3.87,17.97,17.68,10.59,29.07-.96,1.49-3.23,4.39-4.93,4.69-.37.5,3.41,2.96,4.01,3.6,7.99,8.53,7.58,20.15-4.67,23.56,2.54,6.41,6,12.77,5.97,19.87,3.79-.7,7.09-3.43,10.98-3.92,5.27-.66,9.53.99,13.54,4.24,18.16,14.74,4.82,45.46-14.58,52.03,6.61,7.03,2.01,17.59-5.08,22.41-2.26,1.54-7.68,2.83-8.82,3.77-.53.44-4.53,7.83-5.72,9.52-2.36,3.33-4.93,6.58-8.1,9.12l-.02,47.51,2.01,1.3c28.8,7.46,59.03,12.96,87.32,22.01,66.35,21.21,77.6,64.83,85.41,128.6,4.14,33.73,6.04,67.8,9.36,101.62h94.42c.54,0,1.33,1.65.98,2.31l-2.28,1.04c-207.38-.09-414.4.03-621.55,0l-2.28-1.04c-.34-.66.44-2.31.98-2.31h82.82ZM556.72,576.03c4.09-4.1,11.65-2.56,13.36,3.11l1.26.61,20.46-3.42c2.09-.87,4.5-11.74,4.92-14.3,3.45-21.29,1.48-64.4-12.72-81.64-22.91-27.81-95.38-18.31-97.68,22.31-.19,3.42,2.66,6.41,2.34,8.53-.19,1.26-2.52,2.44-3.38.96-3.42-17.2-25.61-25.2-36.39-9.21-11.79,17.5,3.64,44.31,23.43,47.35,2.56.39,8.87-.29,10.04,1.22.41.53,2.18,10.95,2.77,13.13,5.05,18.48,26.03,40.48,45.87,42.25,5.74.51,16.11.51,21.84,0,15.46-1.38,32.97-14.01,38.77-28.48l-20.39,3.09c-1.3.52-1.25,2.62-2.13,3.88-6.76,9.6-19.93-1.82-12.37-9.39ZM601.55,550.63c17.1-1.33,29.63-17.33,28.52-34.15-1.04-15.77-17.04-23.48-29.07-12.45.82,2.66-1.56,5.55-1.77,7.16-.6,4.62,2.93,12.97,1.67,18.23,4.52-5.95,8.61-13.03,15.57-16.38,1.93,1.27,1.96,1.51.68,3.15-1.5,1.93-4.93,3.94-6.97,6.29-1.41,1.62-3,3.97-4.12,5.82-.84,1.41-1.41,4.33-2.2,5.11-.86.85-2.32.52-2.32.64v16.56ZM597.58,575.14c10.31-1.85,17.06-12.7,11.26-22.24l-7.67,1-3.6,21.24ZM504.15,598.99v48.7c0,1.56,3.88,9.83,5.01,11.55,15.84,24.07,63.06,20.08,69.04-9.06,1.72-8.37.89-21.52.85-30.3-.04-6.52.42-13.17-.7-19.57-16.71,12.95-48.48,14.51-66.45,3.84-1-.59-7.32-5.67-7.75-5.17ZM547.22,678.5h-11.59c-1.83,0-10.11-2.77-12.25-3.66-10.6-4.4-19.75-13.99-21.92-25.45l-2.18.02c-27.81,7.77-56.97,12.73-84.41,21.62-4.97,1.61-20.14,6.57-23.55,9.41-.82.68-.51,2.41-1.77,3.04-1.1.55-3.15.36-4.92,1.04-2.01.77-13.32,9.41-13.58,10.96-.12.72,1.3,1.75,1.33,3.22.08,3.76-3.78,3.44-5.71,1.11-1.03,0-10.86,12.9-11.64,14.74-.71,1.69-.36,3.53-.75,4.23-.15.27-1.53.57-2.16,1.46-17.11,23.92-22.11,104.17-24.86,135.49-1.23,14.01-1.9,28.08-3.32,42.07h84.15c.49-2.82-3.14.41-4.63-.98l-1.36-2.03c-.31-3.38,3.18-2.48,3.89-3.06.2-.17,1.8-4.61,1.83-4.87.03-.35-1.56-6.61-1.83-6.83-.64-.54-3.63.34-3.89-2.47-.31-3.45,3.92-2.64,4.04-3.32l-.07-12.18c-1.87.05-3.61-.25-3.97-2.38-.07-2.48,1.83-3.08,3.97-2.98l.07-12.18c-3.21-.49-5.3-2.04-3.39-5.39l3.36-.29v-12.59c-5.47,1.61-5.52-5.47.04-5.67l-.04-12.22-3.22-.09c-1.68-2.97-.31-6.35,3.21-4.54l.05-12.18c-5.36-.85-5.78-6.37-.07-6.4l.07-11.49c-5.63-1.33-5.63-5.45,0-6.77v-11.12c-3.33-.79-5.34-2.47-2.89-5.77l2.85.06.05-12.21c-.12-.68-4.35.13-4.04-3.32.26-2.85,3.61-2.07,3.95-2.41.27-.27.75-5.64,1.46-7.49,2.74-7.16,9.94-11.78,17.46-12.36h244.54c8.45.07,17.07,6.29,19.22,14.56.36,1.39.05,4.04.39,4.59s2.89.18,3.25,2.44c.6,3.76-2.71,3.11-3.25,3.71-.38.42-.33,10.45-.11,11.37.19.77,7.26,3.91.63,6.14-.17.62-.15,11.66.03,12.41.2.8,2.89,1.14,2.69,2.78,0,1.84-2.49,1.97-2.69,2.78-.22.92-.22,11.4,0,12.32.16.65,6.23,3.41-.03,5.47.83,3.18-1.86,9.63-.28,12.22.57.93,3.06,1.24,3.02,2.99-.02,1.57-2.08,1.48-2.57,2.77-.27.71-.81,4.85-.81,5.81,0,.64.55,6.27.64,6.59.23.84,2.6,0,2.69,2.03.08,1.92-1.54,2.98-3.32,3.02,2.21,3.35-1.11,9.07.33,11.93.6,1.2,2.85,1.19,3.03,2.98.27,2.54-2.19,2.49-2.56,3.1-.29.49-.35,10.26-.12,11.45.36,1.9,2.33,2.2,2.68,4,0,1.64-2.33,1.36-2.7,3.3-.65,3.44.49,8.6.01,12.27,2.66-1.06,3.14,2.06,1.87,3.88l-2.54.09c1.12,1.96-1.36,6.87-1.23,7.53s1.29,1.16,1.53,1.78c.43,1.09.26,2.29.71,3.26s2.33,1.64,2.33,3c0,2.3-3.32.99-4.01,2.98h35.78c-6.11-5.78,4.36-8.07,3.94-2.96-.18,2.16-2.25,1.55-2.62,2.96h37.77l-.32-1.31c-6.35,3.06-6.85-6.74-.35-3.99.38-.48-.79-11.28-1.3-12.12-.97-1.57-7.35-1.76-.23-6.72-.93-3.3-.11-7.98-1.26-11.15-.4-1.09-1.81-1.61-1.83-2.79s1.47-3.54,1.35-6.67c-.25-6.94-1.38-15.37-2.02-22.5-3.45-38.28-7-89.37-29.13-121.27-18.43-26.57-44.22-34.98-74.08-43.19-23.87-6.56-48.32-11.75-72.36-17.42-1.94,16.03-17.17,27.45-32.47,29.16,2.74,2.79,2.41,6.64-2.18,5.84-1.52-.46-2.42-2.52-1.49-3.88.43-.64,1.89-.25,1.68-1.3ZM451.02,715.79c-.75,0-1.77.49-2.82.5-12.84.07-35.55-4.56-38.49,12.53l.22,154.23c1.03,2.57,2.79,4.35,5.75,4.19l266.76-.32,2.96-3.67.33-154.08c-1.71-8.1-8.05-13.07-16.22-13.59-3.2-.2-5.71.68-8.61.71-69.95.77-139.7-.87-209.87-.51ZM686.36,890.52h-275.96c-1.86,0-.51,4.85.5,5.79.93.87,4.06,1.41,5.44,1.53l265.42-.32c4.04-.85,4.99-3,4.6-6.99Z"/>
    <path d="M625.83,573.21c2.16-.65,16.77,4.65,20.29,4.72,2.47,1.27,1.14,3.34-1.75,3.13-1.97-.14-16.01-3.4-17.81-4.11-1.91-.76-2.71-3.15-.73-3.74Z"/>
    <path d="M643.75,550.74l2.15,1.63c.18,1.01-1.03,1.68-1.77,2.09-1.79.98-14.14,5.69-15.91,5.99-2.75.48-4.07-1.56-1.68-3.05,4.43-2.77,12.45-3.87,17.21-6.65Z"/>
    <path d="M631.35,604.94c-.07.09-1.96.72-2.31.08l-12.87-15.55c1-1.33,1.35-2.21,2.96-1.12.9.61,11.53,13.14,11.88,13.99.26.64.68,2.15.35,2.6Z"/>
    <path d="M563.77,802.59c0,9.16-7.42,16.58-16.58,16.58s-16.58-7.42-16.58-16.58,7.42-16.58,16.58-16.58,16.58,7.42,16.58,16.58ZM560.32,802.7c0-7.26-5.88-13.14-13.14-13.14s-13.14,5.88-13.14,13.14,5.88,13.14,13.14,13.14,13.14-5.88,13.14-13.14Z"/>
    <path d="M388.17,891.82c.41-.4.08-10.29-.62-11.43-.62-1.01-3.63-.44-3.36-3.42.23-2.5,3.42-2.01,3.92-3.43.28-.8.31-8.79.1-9.86-.47-2.36-4.36-1.42-4.02-4.59.23-2.51,3.42-2.01,3.92-3.43l.09-11.51-3.36-.29c-3.01-4.24,2.79-4.73,3.27-6.09.61-1.75-1.15-10.76,1.73-10.18l1.7,2.95-.04,60.32c-1.94,1.64-1.13,3.92-1.61,4.96-.88,1.88-5.76,2.49-5.73-.97.04-3.72,3.58-2.6,4-3.01Z"/>
    <circle cx="690.18" cy="698.86" r="2.93"/>
    <circle cx="369.47" cy="770.26" r="2.92"/>
    <circle cx="387.36" cy="770.26" r="2.92"/>
    <circle cx="725.27" cy="770.26" r="2.92"/>
    <circle cx="725.23" cy="788.02" r="2.94"/>
    <circle cx="387.27" cy="823.79" r="2.93"/>
    <circle cx="369.48" cy="752.42" r="2.89"/>
    <circle cx="387.37" cy="752.42" r="2.89"/>
    <circle cx="619.11" cy="681.16" r="2.89"/>
    <circle cx="369.37" cy="788.11" r="2.92"/>
    <circle cx="743.05" cy="788.11" r="2.92"/>
    <circle cx="707.39" cy="823.79" r="2.92"/>
    <path d="M727.34,826.15c-2.43,1.53-7.2-1.58-4.37-4.37,3.49-3.44,6.95,2.75,4.37,4.37Z"/>
    <path d="M389.43,732.27c2.58,1.62-.88,7.81-4.37,4.37-2.83-2.79,1.94-5.91,4.37-4.37Z"/>
    <circle cx="369.32" cy="823.69" r="2.88"/>
    <circle cx="351.52" cy="770.26" r="2.89"/>
    <circle cx="369.28" cy="859.37" r="2.87"/>
    <circle cx="707.4" cy="770.25" r="2.88"/>
    <circle cx="725.16" cy="841.51" r="2.87"/>
    <circle cx="351.52" cy="788.15" r="2.89"/>
    <circle cx="725.16" cy="877.26" r="2.87"/>
    <circle cx="351.47" cy="841.51" r="2.87"/>
    <circle cx="387.27" cy="788.07" r="2.9"/>
    <circle cx="512.48" cy="681.17" r="2.87"/>
    <circle cx="369.24" cy="841.5" r="2.85"/>
    <circle cx="707.31" cy="841.49" r="2.85"/>
    <circle cx="601.3" cy="681.15" r="2.85"/>
    <circle cx="742.92" cy="877.28" r="2.85"/>
    <circle cx="636.91" cy="681.16" r="2.85"/>
    <circle cx="351.35" cy="877.28" r="2.85"/>
    <circle cx="672.69" cy="681.16" r="2.85"/>
    <circle cx="351.48" cy="805.76" r="2.86"/>
    <circle cx="369.37" cy="805.76" r="2.86"/>
    <circle cx="547.95" cy="698.83" r="2.86"/>
    <circle cx="742.92" cy="841.5" r="2.85"/>
    <circle cx="707.28" cy="805.76" r="2.86"/>
    <circle cx="707.31" cy="859.38" r="2.85"/>
    <path d="M390.03,700.86c-1.59,1.53-4.9.97-5.14-1.51-.6-6.17,8.75-1.97,5.14,1.51Z"/>
    <circle cx="351.43" cy="823.64" r="2.85"/>
    <circle cx="725.23" cy="752.41" r="2.87"/>
    <circle cx="707.31" cy="877.27" r="2.85"/>
    <circle cx="725.12" cy="859.42" r="2.85"/>
    <path d="M727.34,732.27c2.77,1.74-1.24,7.49-4.37,4.37-2.83-2.82,1.95-5.89,4.37-4.37Z"/>
    <circle cx="742.96" cy="823.68" r="2.85"/>
    <circle cx="742.92" cy="859.39" r="2.85"/>
    <circle cx="405.15" cy="716.88" r="2.86"/>
    <circle cx="369.24" cy="877.28" r="2.85"/>
    <circle cx="601.25" cy="698.95" r="2.83"/>
    <circle cx="387.21" cy="805.87" r="2.84"/>
    <circle cx="333.63" cy="877.24" r="2.83"/>
    <circle cx="333.58" cy="859.4" r="2.83"/>
    <path d="M603.44,665.81c-4.19,2.63-7.44-5.06-2.16-5.19,3.45-.08,3.44,4.38,2.16,5.19Z"/>
    <circle cx="619.2" cy="663.29" r="2.83"/>
    <circle cx="387.48" cy="716.76" r="2.84"/>
    <circle cx="707.38" cy="788.1" r="2.84"/>
    <circle cx="654.79" cy="681.18" r="2.83"/>
    <circle cx="583.41" cy="698.85" r="2.83"/>
    <circle cx="654.71" cy="698.81" r="2.84"/>
    <circle cx="405.37" cy="698.87" r="2.84"/>
    <circle cx="707.46" cy="752.41" r="2.83"/>
    <circle cx="351.74" cy="752.42" r="2.83"/>
    <circle cx="619.11" cy="698.94" r="2.82"/>
    <circle cx="565.77" cy="698.87" r="2.81"/>
    <circle cx="636.92" cy="698.97" r="2.81"/>
    <path d="M496.76,696.49c1.69,1.06.62,6.81-3.21,4.89-4.03-2.02-.05-6.93,3.21-4.89Z"/>
    <circle cx="459.1" cy="698.87" r="2.81"/>
    <circle cx="441.21" cy="698.87" r="2.81"/>
    <path d="M371.54,732.27c1.69,1.06.62,6.81-3.21,4.89-4.03-2.02-.05-6.93,3.21-4.89Z"/>
    <path d="M670.56,696.49c3.69-2.32,7.52,3.89,2.74,5.11-3.4.87-4.43-4.05-2.74-5.11Z"/>
    <circle cx="476.99" cy="663.43" r="2.81"/>
    <circle cx="512.44" cy="698.94" r="2.82"/>
    <circle cx="369.65" cy="716.76" r="2.81"/>
    <circle cx="707.56" cy="716.76" r="2.81"/>
    <circle cx="743.01" cy="805.81" r="2.82"/>
    <circle cx="725.12" cy="805.81" r="2.82"/>
    <circle cx="743.06" cy="770.13" r="2.81"/>
    <circle cx="405.43" cy="680.98" r="2.81"/>
    <circle cx="423.49" cy="681.16" r="2.8"/>
    <path d="M497.44,683.05c-1.38,2.19-7.63.19-5.11-3.79,1.5-2.37,7.15.54,5.11,3.79Z"/>
    <circle cx="530.2" cy="698.93" r="2.77"/>
    <path d="M568.32,679.26v3.78c-6.79,3.13-7.57-7.18,0-3.78Z"/>
    <circle cx="707.27" cy="894.58" r="2.79"/>
    <circle cx="708.01" cy="698.92" r="2.78"/>
    <circle cx="441.39" cy="681.17" r="2.8"/>
    <circle cx="476.97" cy="698.82" r="2.78"/>
    <circle cx="707.54" cy="734.64" r="2.8"/>
    <circle cx="689.76" cy="716.85" r="2.74"/>
    <circle cx="369.23" cy="894.63" r="2.76"/>
    <circle cx="725.36" cy="716.84" r="2.75"/>
    <circle cx="583.57" cy="681.24" r="2.75"/>
    <circle cx="423.32" cy="698.78" r="2.76"/>
    <circle cx="742.78" cy="894.63" r="2.72"/>
    <path d="M479.55,683.05c-1.04,1.67-6.83.62-4.89-3.22,1.79-3.55,6.68.37,4.89,3.22Z"/>
    <path d="M456.54,679.25c1.04-1.67,6.83-.62,4.89,3.22-1.79,3.55-6.68-.37-4.89-3.22Z"/>
    <path d="M528.11,679.26c8.91-1.35,4.47,8.5-.67,2.75l.67-2.75Z"/>
    <circle cx="333.69" cy="894.68" r="2.72"/>
    <circle cx="333.85" cy="841.53" r="2.66"/>
    <circle cx="351.26" cy="859.54" r="2.66"/>
    <circle cx="742.73" cy="752.4" r="2.7"/>
    <circle cx="334.09" cy="823.73" r="2.52"/>
    <path d="M692.95,680.53c.59,4.05-6.05,4.91-5.29.31.53-3.19,3.41-.77,5.29-.31Z"/>
    <polygon points="353.7 896.44 349.16 896.44 349.44 893.17 351.43 892.09 353.09 892.82 353.7 896.44"/>
    <path d="M461.74,661.94c-.12,2.71.11,4.41-2.97,4.01-5.56-.71-.51-4.41,2.97-4.01Z"/>
    <path d="M494.88,660.62l-1.28,2.22c.06.31,1.39,1.69,1.62,1.74,1.57.36,1.12-2.09,2.3-1.98l-1.1,3.34c-5.03,1.22-6.37-4.16-1.55-5.32Z"/>
    <path d="M353.1,732.83c3.73,2.76-1.31,6.97-3.98,2.98,1.32-1.52,3.95-.4,3.98-2.98Z"/>
    <path d="M581.02,663.92l3.97.66-1.32-3.97c2.29-.22,3.46,3.13,2.36,4.68-.83,1.17-5.41,1.17-5.01-1.37Z"/>
    <path d="M542.48,507.67c5.7,10,17.12,25,9.26,36.55-2.2,3.23-9.91,6.83-8.45,2.16.26-.84,2.92-1.79,3.94-2.69,9.42-8.21-2.84-26.92-8.56-34.57-.17-1.79,2.59-1.84,3.8-1.45Z"/>
    <path d="M522.6,563.33c2.06,6.17,6.81,11.59,13.91,9.39,2.48-.77,4.34-4.89,6.76-3.23,1.99,1.38-1.51,4.53-2.71,5.29-7.28,4.66-16.98.86-20.17-6.93-1.09-2.66-1.52-5.46,2.21-4.52Z"/>
    <path d="M459.83,510.93c2.3-1.68,12.41,7.22,14.19,9.21,1.56,1.74,8.55,10.27,5.64,12.29-3.1.84-4.46-5.07-6.37-7.58-3.51-4.62-8.86-8.55-13.91-11.32l.45-2.59Z"/>
    <path d="M511.56,490.47c1.42-.24,6.56-.5,7.49.14s.94,2.74,0,3.39c-1.61,1.11-6.67-1.72-11.33,2.58-.97.9-2.98,5.14-4.98,2.37-2.13-2.95,6.2-8.03,8.81-8.48Z"/>
    <circle cx="567.3" cy="513.62" r="4.72"/>
    <path d="M579.84,499.76c-3.3.75-3.34-1.86-4.96-3.32-1.48-1.33-5.32-2.59-7.3-2.64-1.31-.04-5.79,2.01-4.88-1.55,1.3-5.05,19.67-.06,17.13,7.51Z"/>
    <circle cx="516.79" cy="513.62" r="4.7"/>
  </g>
  <rect class="st0" x="793.43" y="466.21" width="137.16" height="44.44" rx="22.22" ry="22.22"/>
  <rect class="st0" x="601.18" y="324.64" width="137.16" height="44.44" rx="22.22" ry="22.22"/>
  <rect class="st0" x="271.38" y="528.4" width="137.16" height="44.44" rx="22.22" ry="22.22"/>
  <rect class="st0" x="677.67" y="565.64" width="93.8" height="44.44" rx="18.38" ry="18.38"/>
  <g>
    <path d="M839.27,494.5c-1.43,0-2.69-.32-3.76-.97-1.07-.65-1.91-1.55-2.5-2.71-.6-1.16-.9-2.52-.9-4.08s.31-2.92.92-4.09,1.46-2.08,2.56-2.73c1.09-.65,2.35-.98,3.79-.98,1.14,0,2.17.21,3.09.64.92.42,1.68,1.02,2.3,1.79s1.01,1.66,1.19,2.69h-2.19c-.28-.99-.81-1.76-1.61-2.32-.79-.56-1.74-.83-2.84-.83-1.02,0-1.9.24-2.66.72-.76.48-1.35,1.16-1.76,2.02-.42.87-.63,1.9-.63,3.08s.21,2.19.63,3.07c.42.88,1.01,1.55,1.77,2.04.77.48,1.65.72,2.65.72,1.11,0,2.08-.27,2.89-.82s1.36-1.29,1.64-2.22h2.17c-.21,1-.63,1.88-1.26,2.63-.63.75-1.42,1.33-2.36,1.75-.94.42-1.98.63-3.12.63Z"/>
    <path d="M850.15,494.27h-2.05v-15.09h5.7c1.61,0,2.88.4,3.79,1.2.91.8,1.37,1.91,1.37,3.33,0,1.04-.25,1.93-.76,2.65-.51.72-1.23,1.24-2.16,1.54l3.07,6.37h-2.27l-2.82-5.97h-3.86v5.97ZM850.15,481.01v5.47h3.67c.95,0,1.68-.24,2.2-.73s.78-1.16.78-2.03-.27-1.55-.8-2.01-1.27-.7-2.2-.7h-3.65Z"/>
    <path d="M863.34,494.27h-2v-15.09h2l5.2,12.69,5.2-12.69h2.05v15.09h-2v-7.79c0-.5,0-.93.02-1.29.01-.36.03-.69.04-.97.01-.29.03-.56.06-.83l-4.4,10.88h-1.92l-4.38-10.83c.06.36.09.92.11,1.67.02.75.03,1.66.03,2.71v6.45Z"/>
  </g>
  <g>
    <path d="M629.44,351.42h-2.13l5.51-15.09h2.28l5.53,15.09h-2.15l-1.36-3.76h-6.35l-1.34,3.76ZM633.7,339.59l-2.3,6.3h5.11l-2.32-6.3c-.04-.15-.09-.31-.15-.47-.06-.16-.09-.29-.1-.41-.03.11-.06.25-.1.41-.04.16-.09.32-.15.47Z"/>
    <path d="M643.84,351.42h-1.96v-10.21h1.77l.21,1.57c.32-.58.78-1.04,1.39-1.37.61-.33,1.27-.49,1.99-.49,1.34,0,2.32.38,2.96,1.15.64.77.96,1.8.96,3.11v6.24h-1.96v-5.8c0-1.03-.22-1.77-.67-2.22s-1.04-.68-1.79-.68c-.92,0-1.63.3-2.14.9-.51.6-.76,1.4-.76,2.4v5.41Z"/>
    <path d="M656.45,351.67c-1.09,0-1.94-.28-2.56-.86-.62-.57-.93-1.31-.93-2.23s.33-1.68,1-2.24c.67-.56,1.6-.89,2.8-.99l3.21-.25v-.29c0-.57-.1-1.03-.31-1.37-.21-.34-.49-.58-.86-.73-.36-.15-.77-.22-1.23-.22-.82,0-1.46.17-1.91.51-.45.34-.68.82-.68,1.45h-1.71c0-.71.18-1.33.54-1.86.36-.53.87-.94,1.53-1.23s1.43-.44,2.31-.44,1.59.15,2.22.45c.63.3,1.13.75,1.48,1.36.35.61.53,1.37.53,2.29v6.41h-1.67l-.21-1.65c-.26.58-.72,1.05-1.37,1.39-.65.34-1.38.51-2.2.51ZM657.01,350.15c.93,0,1.66-.28,2.19-.84s.79-1.33.79-2.29v-.54l-2.61.21c-.86.08-1.49.29-1.87.61s-.57.73-.57,1.23c0,.54.18.95.55,1.22.37.27.87.41,1.51.41Z"/>
    <path d="M666.2,351.42h-1.96v-15.36h1.96v15.36Z"/>
    <path d="M669.47,341.22l3.59,9.94-1.21,1.67-4.45-11.61h2.07ZM667.68,356v-1.61h1.31c.32,0,.61-.03.88-.09.26-.06.51-.2.73-.4.22-.2.41-.52.56-.95l4.3-11.73h2.02l-4.82,12.5c-.35.88-.79,1.51-1.31,1.9s-1.18.58-1.96.58c-.32,0-.62-.02-.9-.05-.28-.04-.55-.09-.81-.16Z"/>
    <path d="M677.55,341.22h5.97v1.65h-5.97v-1.65ZM681.52,351.42h-1.96v-13.4h1.96v13.4Z"/>
    <path d="M685.82,338.8c-.35,0-.65-.13-.91-.39-.26-.26-.39-.56-.39-.91s.13-.67.39-.92c.26-.25.56-.38.91-.38s.67.12.92.38c.25.25.38.56.38.92s-.12.65-.38.91-.56.39-.92.39ZM684.86,351.42v-10.21h1.96v10.21h-1.96Z"/>
    <path d="M688.57,346.33c0-1.07.21-2.01.64-2.82.42-.81,1.01-1.44,1.76-1.9.75-.46,1.62-.69,2.61-.69,1.28,0,2.34.34,3.19,1.02.85.68,1.36,1.59,1.52,2.71h-1.96c-.17-.65-.49-1.15-.98-1.48-.49-.33-1.06-.5-1.71-.5-.61,0-1.15.15-1.63.45-.47.3-.84.72-1.11,1.26-.26.54-.4,1.18-.4,1.92s.13,1.37.38,1.91c.25.54.6.95,1.06,1.25.46.3.99.45,1.61.45.7,0,1.29-.17,1.8-.52s.83-.82,1-1.42h1.96c-.13.74-.41,1.38-.85,1.93-.44.55-.99.98-1.67,1.29-.68.31-1.42.47-2.24.47-1,0-1.88-.22-2.62-.67-.74-.45-1.33-1.07-1.74-1.87-.42-.8-.63-1.74-.63-2.81Z"/>
    <path d="M699.13,348.46h1.88c0,.51.19.92.56,1.22.38.3.88.45,1.52.45.7,0,1.23-.14,1.61-.41.38-.27.56-.64.56-1.1,0-.33-.1-.61-.3-.83-.2-.22-.57-.4-1.1-.54l-1.79-.42c-.9-.22-1.58-.56-2.01-1.02-.44-.46-.66-1.06-.66-1.82,0-.63.16-1.17.49-1.63.33-.46.78-.81,1.36-1.06.58-.25,1.24-.38,1.99-.38s1.4.13,1.95.4c.55.26.98.63,1.29,1.11.31.47.48,1.04.49,1.69h-1.88c-.01-.53-.19-.94-.52-1.23-.33-.29-.8-.44-1.4-.44s-1.09.13-1.42.4c-.33.26-.5.63-.5,1.08,0,.68.5,1.15,1.5,1.4l1.79.44c.86.2,1.51.51,1.94.95.43.44.65,1.03.65,1.79,0,.64-.17,1.2-.52,1.68-.35.48-.82.85-1.43,1.11-.61.26-1.32.39-2.14.39-1.2,0-2.15-.29-2.86-.88-.71-.58-1.06-1.36-1.06-2.34Z"/>
  </g>
  <g>
    <path d="M306.77,544.36v15.09h-2.05v-15.09h2.05ZM310.59,554.07h-4.28v-1.84h3.84c1.02,0,1.79-.27,2.34-.82.54-.55.81-1.29.81-2.22s-.27-1.68-.81-2.2c-.54-.52-1.29-.78-2.25-.78h-4.38v-1.84h4.74c.99,0,1.84.2,2.57.61s1.29.97,1.69,1.69c.4.72.61,1.57.61,2.55s-.2,1.77-.61,2.5c-.4.74-.97,1.32-1.69,1.73-.72.42-1.58.63-2.57.63Z"/>
    <path d="M322.87,549.16v1.79h-.88c-.93,0-1.67.27-2.2.8s-.8,1.3-.8,2.29v5.41h-1.96v-10.19h1.84l.17,2.04h-.19c.14-.67.47-1.21,1-1.64.53-.42,1.19-.64,1.98-.64.18,0,.35,0,.51.03.16.02.34.05.53.09Z"/>
    <path d="M323.24,554.34c0-1.04.23-1.97.69-2.78.46-.81,1.09-1.44,1.89-1.9s1.71-.69,2.74-.69,1.94.23,2.73.69c.79.46,1.42,1.09,1.88,1.9.46.81.69,1.73.69,2.78s-.23,1.97-.69,2.78c-.46.81-1.08,1.44-1.88,1.9-.79.46-1.7.69-2.73.69s-1.94-.23-2.74-.69-1.43-1.09-1.89-1.9c-.46-.81-.69-1.73-.69-2.78ZM325.23,554.34c0,.71.14,1.33.43,1.88s.68.97,1.18,1.27,1.08.46,1.73.46,1.23-.15,1.73-.46.89-.73,1.18-1.27c.28-.54.43-1.17.43-1.88s-.14-1.35-.43-1.89c-.29-.54-.68-.96-1.18-1.26-.5-.31-1.08-.46-1.73-.46s-1.23.15-1.73.46c-.5.31-.89.73-1.18,1.26-.29.54-.43,1.17-.43,1.89Z"/>
    <path d="M333.03,564.08l.33-1.77c.2.06.36.09.5.12.14.02.29.03.44.03.47,0,.81-.14,1.01-.42s.3-.7.3-1.27v-11.52h1.96v11.71c0,1.02-.27,1.82-.81,2.42-.54.6-1.31.9-2.3.9-.25,0-.48-.01-.69-.04-.21-.03-.46-.08-.75-.15ZM336.6,546.82c-.36,0-.67-.13-.92-.39s-.38-.56-.38-.91.12-.67.38-.92c.25-.25.56-.38.92-.38s.65.12.91.38c.26.25.39.56.39.92s-.13.65-.39.91-.56.39-.91.39Z"/>
    <path d="M344.41,559.7c-.99,0-1.86-.23-2.63-.68s-1.36-1.08-1.79-1.88c-.43-.8-.65-1.73-.65-2.79s.21-2.01.64-2.82c.42-.81,1.01-1.44,1.75-1.9.74-.46,1.61-.69,2.6-.69s1.82.21,2.54.63c.72.42,1.27,1,1.67,1.75.4.75.59,1.63.59,2.65v.73l-8.75.02.04-1.32h6.74c0-.85-.26-1.53-.77-2.05-.51-.51-1.2-.77-2.07-.77-.65,0-1.21.14-1.68.43s-.82.7-1.06,1.25c-.24.55-.37,1.21-.37,1.97,0,1.22.28,2.17.83,2.83.56.66,1.36.99,2.4.99.77,0,1.39-.15,1.88-.46.49-.31.81-.75.98-1.34h1.84c-.25,1.09-.79,1.93-1.61,2.53-.82.6-1.86.9-3.13.9Z"/>
    <path d="M350.23,554.36c0-1.07.21-2.01.64-2.82.42-.81,1.01-1.44,1.76-1.9.75-.46,1.62-.69,2.61-.69,1.28,0,2.34.34,3.19,1.02.85.68,1.36,1.59,1.52,2.71h-1.96c-.17-.65-.49-1.15-.98-1.48-.49-.33-1.06-.5-1.71-.5-.61,0-1.15.15-1.63.45-.47.3-.84.72-1.11,1.26-.26.54-.4,1.18-.4,1.92s.13,1.37.38,1.91c.25.54.6.95,1.06,1.25.46.3.99.45,1.61.45.7,0,1.29-.17,1.8-.52s.83-.82,1-1.42h1.96c-.13.74-.41,1.38-.85,1.93-.44.55-.99.98-1.67,1.29-.68.31-1.42.47-2.24.47-1,0-1.88-.22-2.62-.67-.74-.45-1.33-1.07-1.74-1.87-.42-.8-.63-1.74-.63-2.81Z"/>
    <path d="M360.54,549.24h5.97v1.65h-5.97v-1.65ZM364.51,559.45h-1.96v-13.4h1.96v13.4Z"/>
    <path d="M367.01,556.49h1.88c0,.51.19.92.56,1.22.38.3.88.45,1.52.45.7,0,1.23-.14,1.61-.41.38-.27.56-.64.56-1.1,0-.33-.1-.61-.3-.83-.2-.22-.57-.4-1.1-.54l-1.79-.42c-.9-.22-1.58-.56-2.01-1.02-.44-.46-.66-1.06-.66-1.82,0-.63.16-1.17.49-1.63.33-.46.78-.81,1.36-1.06.58-.25,1.24-.38,1.99-.38s1.4.13,1.95.4c.55.26.98.63,1.29,1.11.31.47.48,1.04.49,1.69h-1.88c-.01-.53-.19-.94-.52-1.23-.33-.29-.8-.44-1.4-.44s-1.09.13-1.42.4c-.33.26-.5.63-.5,1.08,0,.68.5,1.15,1.5,1.4l1.79.44c.86.2,1.51.51,1.94.95.43.44.65,1.03.65,1.79,0,.64-.17,1.2-.52,1.68-.35.48-.82.85-1.43,1.11-.61.26-1.32.39-2.14.39-1.2,0-2.15-.29-2.86-.88-.71-.58-1.06-1.36-1.06-2.34Z"/>
  </g>
  <g>
    <path d="M714.22,596.07h-2.05v-15.09h2.05v6.49h7.47v-6.49h2.05v15.09h-2.05v-6.7h-7.47v6.7Z"/>
    <path d="M728.87,596.07h-2.05v-15.09h5.7c1.61,0,2.88.4,3.79,1.2.91.8,1.37,1.91,1.37,3.33,0,1.04-.25,1.93-.76,2.65-.51.72-1.23,1.24-2.16,1.54l3.07,6.37h-2.27l-2.82-5.97h-3.86v5.97ZM728.87,582.81v5.47h3.67c.95,0,1.68-.24,2.2-.73s.78-1.16.78-2.03-.27-1.55-.8-2.01-1.27-.7-2.2-.7h-3.65Z"/>
  </g>
</svg>